<mxfile host="65bd71144e">
    <diagram id="rmDeNDEXSoQp195c3ojG" name="PÃ¡gina-1">
        <mxGraphModel dx="791" dy="518" grid="1" gridSize="10" guides="1" tooltips="1" connect="1" arrows="1" fold="1" page="1" pageScale="1" pageWidth="1169" pageHeight="827" math="0" shadow="0">
            <root>
                <mxCell id="0"/>
                <mxCell id="1" parent="0"/>
                <mxCell id="38" value="" style="whiteSpace=wrap;html=1;labelBackgroundColor=#FFFFFF;fontColor=#000000;" parent="1" vertex="1">
                    <mxGeometry x="10" y="160" width="110" height="120" as="geometry"/>
                </mxCell>
                <mxCell id="19" value="&amp;lt;head\&amp;gt;" style="text;html=1;resizable=0;autosize=1;align=center;verticalAlign=middle;points=[];fillColor=none;strokeColor=none;rounded=0;" parent="1" vertex="1">
                    <mxGeometry x="970" y="70" width="60" height="20" as="geometry"/>
                </mxCell>
                <mxCell id="18" value="&amp;lt;html\&amp;gt;" style="text;html=1;resizable=0;autosize=1;align=center;verticalAlign=middle;points=[];fillColor=none;strokeColor=none;rounded=0;" parent="1" vertex="1">
                    <mxGeometry x="655" y="50" width="60" height="20" as="geometry"/>
                </mxCell>
                <mxCell id="4" value="" style="edgeStyle=none;html=1;entryX=0;entryY=0.5;entryDx=0;entryDy=0;" parent="1" edge="1">
                    <mxGeometry relative="1" as="geometry">
                        <mxPoint x="270" y="190" as="sourcePoint"/>
                        <mxPoint x="560" y="215" as="targetPoint"/>
                    </mxGeometry>
                </mxCell>
                <mxCell id="2" value="&lt;div style=&quot;color: rgb(255 , 255 , 255) ; background-color: rgb(0 , 0 , 0) ; font-family: &amp;#34;consolas&amp;#34; , &amp;#34;courier new&amp;#34; , monospace ; font-size: 14px ; line-height: 19px&quot;&gt;&lt;span style=&quot;color: #808080&quot;&gt;&amp;lt;!&lt;/span&gt;&lt;span style=&quot;color: #569cd6&quot;&gt;DOCTYPE&lt;/span&gt; &lt;span style=&quot;color: #9cdcfe&quot;&gt;html&lt;/span&gt;&lt;span style=&quot;color: #808080&quot;&gt;&amp;gt;&lt;/span&gt;&lt;/div&gt;" style="text;html=1;resizable=0;autosize=1;align=center;verticalAlign=middle;points=[];fillColor=none;strokeColor=none;rounded=0;" parent="1" vertex="1">
                    <mxGeometry x="620" y="10" width="130" height="20" as="geometry"/>
                </mxCell>
                <mxCell id="9" value="" style="edgeStyle=elbowEdgeStyle;elbow=vertical;exitX=0.5;exitY=1;exitDx=0;exitDy=0;" parent="1" edge="1">
                    <mxGeometry relative="1" as="geometry">
                        <mxPoint x="680" y="380" as="sourcePoint"/>
                        <mxPoint x="860" y="430" as="targetPoint"/>
                    </mxGeometry>
                </mxCell>
                <mxCell id="20" value="&amp;lt;body\&amp;gt;" style="text;html=1;resizable=0;autosize=1;align=center;verticalAlign=middle;points=[];fillColor=none;strokeColor=none;rounded=0;" parent="1" vertex="1">
                    <mxGeometry x="330" y="70" width="60" height="20" as="geometry"/>
                </mxCell>
                <mxCell id="21" value="&lt;div style=&quot;font-family: &amp;#34;consolas&amp;#34; , &amp;#34;courier new&amp;#34; , monospace ; font-size: 14px ; line-height: 19px&quot;&gt;&lt;span style=&quot;background-color: rgb(255 , 255 , 255)&quot;&gt;&lt;span style=&quot;color: rgb(128 , 128 , 128)&quot;&gt;&amp;lt;&lt;/span&gt;header&lt;span style=&quot;color: rgb(86 , 156 , 214)&quot;&gt;\&lt;/span&gt;&lt;span style=&quot;color: rgb(128 , 128 , 128)&quot;&gt;&amp;gt;&lt;/span&gt;&lt;/span&gt;&lt;/div&gt;" style="text;html=1;resizable=0;autosize=1;align=center;verticalAlign=middle;points=[];fillColor=none;strokeColor=none;rounded=0;" parent="1" vertex="1">
                    <mxGeometry x="30" y="100" width="80" height="20" as="geometry"/>
                </mxCell>
                <mxCell id="22" value="&lt;div style=&quot;font-family: &amp;#34;consolas&amp;#34; , &amp;#34;courier new&amp;#34; , monospace ; font-size: 14px ; line-height: 19px&quot;&gt;&lt;span style=&quot;background-color: rgb(255 , 255 , 255)&quot;&gt;&lt;span style=&quot;color: rgb(128 , 128 , 128)&quot;&gt;&amp;lt;&lt;/span&gt;main&lt;span style=&quot;color: rgb(86 , 156 , 214)&quot;&gt;\&lt;/span&gt;&lt;span style=&quot;color: rgb(128 , 128 , 128)&quot;&gt;&amp;gt;&lt;/span&gt;&lt;/span&gt;&lt;/div&gt;" style="text;html=1;resizable=0;autosize=1;align=center;verticalAlign=middle;points=[];fillColor=none;strokeColor=none;rounded=0;" parent="1" vertex="1">
                    <mxGeometry x="150" y="100" width="70" height="20" as="geometry"/>
                </mxCell>
                <mxCell id="23" value="&lt;div style=&quot;font-family: &amp;#34;consolas&amp;#34; , &amp;#34;courier new&amp;#34; , monospace ; font-size: 14px ; line-height: 19px&quot;&gt;&lt;span style=&quot;background-color: rgb(255 , 255 , 255)&quot;&gt;&lt;span style=&quot;color: rgb(128 , 128 , 128)&quot;&gt;&amp;lt;&lt;/span&gt;aside&lt;span style=&quot;color: rgb(86 , 156 , 214)&quot;&gt;\&lt;/span&gt;&lt;span style=&quot;color: rgb(128 , 128 , 128)&quot;&gt;&amp;gt;&lt;/span&gt;&lt;/span&gt;&lt;/div&gt;" style="text;html=1;resizable=0;autosize=1;align=center;verticalAlign=middle;points=[];fillColor=none;strokeColor=none;rounded=0;" parent="1" vertex="1">
                    <mxGeometry x="270" y="100" width="80" height="20" as="geometry"/>
                </mxCell>
                <mxCell id="24" value="&lt;div style=&quot;font-family: &amp;#34;consolas&amp;#34; , &amp;#34;courier new&amp;#34; , monospace ; font-size: 14px ; line-height: 19px&quot;&gt;&lt;span style=&quot;background-color: rgb(255 , 255 , 255)&quot;&gt;&lt;span style=&quot;color: rgb(128 , 128 , 128)&quot;&gt;&amp;lt;&lt;/span&gt;footer&lt;span style=&quot;color: rgb(86 , 156 , 214)&quot;&gt;\&lt;/span&gt;&lt;span style=&quot;color: rgb(128 , 128 , 128)&quot;&gt;&amp;gt;&lt;/span&gt;&lt;/span&gt;&lt;/div&gt;" style="text;html=1;resizable=0;autosize=1;align=center;verticalAlign=middle;points=[];fillColor=none;strokeColor=none;rounded=0;" parent="1" vertex="1">
                    <mxGeometry x="390" y="100" width="80" height="20" as="geometry"/>
                </mxCell>
                <mxCell id="25" value="&lt;div style=&quot;color: rgb(255 , 255 , 255) ; font-family: &amp;#34;consolas&amp;#34; , &amp;#34;courier new&amp;#34; , monospace ; font-size: 14px ; line-height: 19px&quot;&gt;&lt;span style=&quot;background-color: rgb(255 , 255 , 255)&quot;&gt;&lt;span style=&quot;color: rgb(128 , 128 , 128)&quot;&gt;&amp;lt;&lt;/span&gt;&lt;span style=&quot;color: rgb(86 , 156 , 214)&quot;&gt;script\&lt;/span&gt;&lt;span style=&quot;color: rgb(128 , 128 , 128)&quot;&gt;&amp;gt;&lt;/span&gt;&lt;/span&gt;&lt;/div&gt;" style="text;html=1;resizable=0;autosize=1;align=center;verticalAlign=middle;points=[];fillColor=none;strokeColor=none;rounded=0;labelBackgroundColor=#FFFFFF;fontColor=#000000;" parent="1" vertex="1">
                    <mxGeometry x="505" y="100" width="80" height="20" as="geometry"/>
                </mxCell>
                <mxCell id="26" value="&lt;div style=&quot;color: rgb(255 , 255 , 255) ; font-family: &amp;#34;consolas&amp;#34; , &amp;#34;courier new&amp;#34; , monospace ; font-size: 14px ; line-height: 19px&quot;&gt;&lt;span style=&quot;background-color: rgb(255 , 255 , 255)&quot;&gt;&lt;span style=&quot;color: rgb(128 , 128 , 128)&quot;&gt;&amp;lt;&lt;/span&gt;&lt;span style=&quot;color: rgb(86 , 156 , 214)&quot;&gt;noscript\&lt;/span&gt;&lt;span style=&quot;color: rgb(128 , 128 , 128)&quot;&gt;&amp;gt;&lt;/span&gt;&lt;/span&gt;&lt;/div&gt;" style="text;html=1;resizable=0;autosize=1;align=center;verticalAlign=middle;points=[];fillColor=none;strokeColor=none;rounded=0;labelBackgroundColor=#FFFFFF;fontColor=#000000;" parent="1" vertex="1">
                    <mxGeometry x="495" y="120" width="100" height="20" as="geometry"/>
                </mxCell>
                <mxCell id="27" value="&lt;div style=&quot;font-family: &amp;#34;consolas&amp;#34; , &amp;#34;courier new&amp;#34; , monospace ; font-size: 14px ; line-height: 19px&quot;&gt;&lt;span style=&quot;background-color: rgb(255 , 255 , 255)&quot;&gt;&lt;span style=&quot;color: rgb(128 , 128 , 128)&quot;&gt;&amp;lt;&lt;/span&gt;meta&lt;span style=&quot;color: rgb(128 , 128 , 128)&quot;&gt;&amp;gt;&lt;/span&gt;&lt;/span&gt;&lt;/div&gt;" style="text;html=1;resizable=0;autosize=1;align=center;verticalAlign=middle;points=[];fillColor=none;strokeColor=none;rounded=0;" parent="1" vertex="1">
                    <mxGeometry x="830" y="100" width="60" height="20" as="geometry"/>
                </mxCell>
                <mxCell id="28" value="&lt;div style=&quot;font-family: &amp;#34;consolas&amp;#34; , &amp;#34;courier new&amp;#34; , monospace ; font-size: 14px ; line-height: 19px&quot;&gt;&lt;span style=&quot;background-color: rgb(255 , 255 , 255)&quot;&gt;&lt;span style=&quot;color: rgb(128 , 128 , 128)&quot;&gt;&amp;lt;&lt;/span&gt;link&lt;span style=&quot;color: rgb(128 , 128 , 128)&quot;&gt;&amp;gt;&lt;/span&gt;&lt;/span&gt;&lt;/div&gt;" style="text;html=1;resizable=0;autosize=1;align=center;verticalAlign=middle;points=[];fillColor=none;strokeColor=none;rounded=0;" parent="1" vertex="1">
                    <mxGeometry x="1070" y="100" width="60" height="20" as="geometry"/>
                </mxCell>
                <mxCell id="29" value="&lt;div style=&quot;font-family: &amp;#34;consolas&amp;#34; , &amp;#34;courier new&amp;#34; , monospace ; font-size: 14px ; line-height: 19px&quot;&gt;&lt;span style=&quot;background-color: rgb(255 , 255 , 255)&quot;&gt;&lt;span style=&quot;color: rgb(128 , 128 , 128)&quot;&gt;&amp;lt;&lt;/span&gt;base&lt;span style=&quot;color: rgb(128 , 128 , 128)&quot;&gt;&amp;gt;&lt;/span&gt;&lt;/span&gt;&lt;/div&gt;" style="text;html=1;resizable=0;autosize=1;align=center;verticalAlign=middle;points=[];fillColor=none;strokeColor=none;rounded=0;" parent="1" vertex="1">
                    <mxGeometry x="710" y="100" width="60" height="20" as="geometry"/>
                </mxCell>
                <mxCell id="30" value="&lt;div style=&quot;font-family: &amp;#34;consolas&amp;#34; , &amp;#34;courier new&amp;#34; , monospace ; font-size: 14px ; line-height: 19px&quot;&gt;&lt;span style=&quot;background-color: rgb(255 , 255 , 255)&quot;&gt;&lt;span style=&quot;color: rgb(128 , 128 , 128)&quot;&gt;&amp;lt;&lt;/span&gt;title&lt;span style=&quot;color: rgb(86 , 156 , 214)&quot;&gt;\&lt;/span&gt;&lt;span style=&quot;color: rgb(128 , 128 , 128)&quot;&gt;&amp;gt;&lt;/span&gt;&lt;/span&gt;&lt;/div&gt;" style="text;html=1;resizable=0;autosize=1;align=center;verticalAlign=middle;points=[];fillColor=none;strokeColor=none;rounded=0;" parent="1" vertex="1">
                    <mxGeometry x="940" y="100" width="80" height="20" as="geometry"/>
                </mxCell>
                <mxCell id="31" value="" style="edgeStyle=elbowEdgeStyle;elbow=vertical;exitX=1.05;exitY=0.35;exitDx=0;exitDy=0;entryX=0.483;entryY=0;entryDx=0;entryDy=0;entryPerimeter=0;exitPerimeter=0;" parent="1" source="19" target="28" edge="1">
                    <mxGeometry relative="1" as="geometry">
                        <mxPoint x="1000" y="85" as="sourcePoint"/>
                        <mxPoint x="1180" y="135" as="targetPoint"/>
                        <Array as="points">
                            <mxPoint x="1060" y="77"/>
                            <mxPoint x="1080" y="77"/>
                        </Array>
                    </mxGeometry>
                </mxCell>
                <mxCell id="32" value="" style="edgeStyle=elbowEdgeStyle;elbow=vertical;" parent="1" target="19" edge="1">
                    <mxGeometry relative="1" as="geometry">
                        <mxPoint x="680" y="50" as="sourcePoint"/>
                        <mxPoint x="890" y="140" as="targetPoint"/>
                        <Array as="points">
                            <mxPoint x="850" y="40"/>
                        </Array>
                    </mxGeometry>
                </mxCell>
                <mxCell id="33" value="" style="edgeStyle=elbowEdgeStyle;elbow=vertical;entryX=0.5;entryY=0.1;entryDx=0;entryDy=0;entryPerimeter=0;" parent="1" target="20" edge="1">
                    <mxGeometry relative="1" as="geometry">
                        <mxPoint x="680" y="50" as="sourcePoint"/>
                        <mxPoint x="360" y="60" as="targetPoint"/>
                        <Array as="points">
                            <mxPoint x="850" y="40"/>
                        </Array>
                    </mxGeometry>
                </mxCell>
                <mxCell id="34" value="" style="edgeStyle=none;html=1;strokeColor=#00CC00;" parent="1" target="25" edge="1">
                    <mxGeometry relative="1" as="geometry">
                        <mxPoint x="390" y="80" as="sourcePoint"/>
                        <mxPoint x="680" y="105" as="targetPoint"/>
                        <Array as="points">
                            <mxPoint x="480" y="80"/>
                        </Array>
                    </mxGeometry>
                </mxCell>
                <mxCell id="35" value="" style="edgeStyle=elbowEdgeStyle;elbow=vertical;entryX=0.5;entryY=0.1;entryDx=0;entryDy=0;entryPerimeter=0;" parent="1" target="24" edge="1">
                    <mxGeometry relative="1" as="geometry">
                        <mxPoint x="390" y="90" as="sourcePoint"/>
                        <mxPoint x="395.98" y="131.5" as="targetPoint"/>
                        <Array as="points">
                            <mxPoint x="440" y="90"/>
                            <mxPoint x="430" y="90"/>
                            <mxPoint x="390" y="99"/>
                            <mxPoint x="357" y="108.5"/>
                            <mxPoint x="377" y="108.5"/>
                        </Array>
                    </mxGeometry>
                </mxCell>
                <mxCell id="37" value="&lt;div style=&quot;font-family: &amp;#34;consolas&amp;#34; , &amp;#34;courier new&amp;#34; , monospace ; font-size: 14px ; line-height: 19px&quot;&gt;&lt;span style=&quot;background-color: rgb(255 , 255 , 255)&quot;&gt;&lt;span style=&quot;color: rgb(128 , 128 , 128)&quot;&gt;&amp;lt;&lt;/span&gt;nav&lt;span style=&quot;color: rgb(86 , 156 , 214)&quot;&gt;\&lt;/span&gt;&lt;span style=&quot;color: rgb(128 , 128 , 128)&quot;&gt;&amp;gt;&lt;/span&gt;&lt;/span&gt;&lt;/div&gt;" style="text;html=1;resizable=0;autosize=1;align=center;verticalAlign=middle;points=[];fillColor=none;strokeColor=none;rounded=0;" parent="1" vertex="1">
                    <mxGeometry x="35" y="210" width="60" height="20" as="geometry"/>
                </mxCell>
                <mxCell id="40" value="&lt;div style=&quot;font-family: &amp;#34;consolas&amp;#34; , &amp;#34;courier new&amp;#34; , monospace ; font-size: 14px ; line-height: 19px&quot;&gt;&lt;span style=&quot;background-color: rgb(255 , 255 , 255)&quot;&gt;&lt;span style=&quot;color: rgb(128 , 128 , 128)&quot;&gt;&amp;lt;d&lt;/span&gt;iv&lt;span style=&quot;color: rgb(86 , 156 , 214)&quot;&gt;\&lt;/span&gt;&lt;span style=&quot;color: rgb(128 , 128 , 128)&quot;&gt;&amp;gt;&lt;/span&gt;&lt;/span&gt;&lt;/div&gt;" style="text;html=1;resizable=0;autosize=1;align=center;verticalAlign=middle;points=[];fillColor=none;strokeColor=none;rounded=0;" parent="1" vertex="1">
                    <mxGeometry x="35" y="140" width="60" height="20" as="geometry"/>
                </mxCell>
                <mxCell id="41" value="" style="edgeStyle=elbowEdgeStyle;elbow=vertical;entryX=0.413;entryY=-0.15;entryDx=0;entryDy=0;entryPerimeter=0;" edge="1" parent="1" target="21">
                    <mxGeometry relative="1" as="geometry">
                        <mxPoint x="350" y="70" as="sourcePoint"/>
                        <mxPoint x="64" y="90" as="targetPoint"/>
                        <Array as="points">
                            <mxPoint x="200" y="60"/>
                            <mxPoint x="40" y="79"/>
                            <mxPoint x="40" y="88"/>
                            <mxPoint x="7" y="97.5"/>
                            <mxPoint x="27" y="97.5"/>
                        </Array>
                    </mxGeometry>
                </mxCell>
                <mxCell id="43" value="" style="edgeStyle=elbowEdgeStyle;elbow=vertical;" edge="1" parent="1" source="20" target="23">
                    <mxGeometry relative="1" as="geometry">
                        <mxPoint x="340" y="90" as="sourcePoint"/>
                        <mxPoint x="313" y="100" as="targetPoint"/>
                        <Array as="points">
                            <mxPoint x="250" y="90"/>
                            <mxPoint x="250" y="90"/>
                            <mxPoint x="290" y="90"/>
                            <mxPoint x="280" y="110"/>
                            <mxPoint x="270" y="90"/>
                            <mxPoint x="220" y="80"/>
                            <mxPoint x="60" y="99"/>
                            <mxPoint x="60" y="108"/>
                            <mxPoint x="27" y="117.5"/>
                            <mxPoint x="47" y="117.5"/>
                        </Array>
                    </mxGeometry>
                </mxCell>
                <mxCell id="44" value="" style="edgeStyle=elbowEdgeStyle;elbow=vertical;" edge="1" parent="1" target="22">
                    <mxGeometry relative="1" as="geometry">
                        <mxPoint x="320" y="80" as="sourcePoint"/>
                        <mxPoint x="150" y="120" as="targetPoint"/>
                        <Array as="points">
                            <mxPoint x="230" y="80"/>
                            <mxPoint x="260" y="160"/>
                            <mxPoint x="160" y="70"/>
                            <mxPoint x="80" y="30"/>
                            <mxPoint x="120" y="30"/>
                            <mxPoint x="110" y="50"/>
                            <mxPoint x="100" y="30"/>
                            <mxPoint x="50" y="20"/>
                            <mxPoint x="-110" y="39"/>
                            <mxPoint x="-110" y="48"/>
                            <mxPoint x="-143" y="57.5"/>
                            <mxPoint x="-123" y="57.5"/>
                        </Array>
                    </mxGeometry>
                </mxCell>
                <mxCell id="45" value="" style="edgeStyle=elbowEdgeStyle;elbow=vertical;entryX=0.413;entryY=-0.15;entryDx=0;entryDy=0;entryPerimeter=0;" edge="1" parent="1">
                    <mxGeometry relative="1" as="geometry">
                        <mxPoint x="990" y="70" as="sourcePoint"/>
                        <mxPoint x="740" y="98.5" as="targetPoint"/>
                        <Array as="points">
                            <mxPoint x="876.96" y="61.5"/>
                            <mxPoint x="716.96" y="80.5"/>
                            <mxPoint x="716.96" y="89.5"/>
                            <mxPoint x="683.96" y="99"/>
                            <mxPoint x="703.96" y="99"/>
                        </Array>
                    </mxGeometry>
                </mxCell>
                <mxCell id="46" value="" style="edgeStyle=elbowEdgeStyle;elbow=vertical;" edge="1" parent="1">
                    <mxGeometry relative="1" as="geometry">
                        <mxPoint x="967" y="80" as="sourcePoint"/>
                        <mxPoint x="860" y="100" as="targetPoint"/>
                        <Array as="points">
                            <mxPoint x="905" y="80"/>
                            <mxPoint x="935" y="160"/>
                            <mxPoint x="835" y="70"/>
                            <mxPoint x="755" y="30"/>
                            <mxPoint x="795" y="30"/>
                            <mxPoint x="785" y="50"/>
                            <mxPoint x="775" y="30"/>
                            <mxPoint x="725" y="20"/>
                            <mxPoint x="565" y="39"/>
                            <mxPoint x="565" y="48"/>
                            <mxPoint x="532" y="57.5"/>
                            <mxPoint x="552" y="57.5"/>
                        </Array>
                    </mxGeometry>
                </mxCell>
                <mxCell id="48" value="" style="edgeStyle=none;html=1;" edge="1" parent="1" source="19" target="30">
                    <mxGeometry relative="1" as="geometry">
                        <mxPoint x="1030" y="80" as="sourcePoint"/>
                        <mxPoint x="1240" y="89" as="targetPoint"/>
                        <Array as="points">
                            <mxPoint x="1040" y="110"/>
                            <mxPoint x="1030" y="120"/>
                        </Array>
                    </mxGeometry>
                </mxCell>
                <mxCell id="49" value="parent element" style="text;html=1;resizable=0;autosize=1;align=center;verticalAlign=middle;points=[];fillColor=none;strokeColor=none;rounded=0;" vertex="1" parent="1">
                    <mxGeometry x="15" y="160" width="100" height="20" as="geometry"/>
                </mxCell>
                <mxCell id="50" value="child element" style="text;html=1;resizable=0;autosize=1;align=center;verticalAlign=middle;points=[];fillColor=none;strokeColor=none;rounded=0;" vertex="1" parent="1">
                    <mxGeometry x="20" y="230" width="90" height="20" as="geometry"/>
                </mxCell>
            </root>
        </mxGraphModel>
    </diagram>
</mxfile>